<?xml version="1.0" encoding="utf-8"?>
<!-- Generator: Adobe Illustrator 19.2.1, SVG Export Plug-In . SVG Version: 6.00 Build 0)  -->
<svg version="1.1" id="Layer_1" xmlns="http://www.w3.org/2000/svg" xmlns:xlink="http://www.w3.org/1999/xlink" x="0px" y="0px"
	 viewBox="0 0 48 24" style="enable-background:new 0 0 48 24;" xml:space="preserve">
<g>
	<path d="M40.7,17.4c-11.1,0-22.3,0-33.4,0c-0.3,0-0.6-0.1-0.8-0.1c-2.1-0.5-3.6-1.7-4.2-3.8c-0.1-0.3-0.1-0.7-0.2-1.1
		c0-0.3,0-0.5,0-0.8c0-0.1,0-0.1,0-0.2c0.3-2.3,1.8-4,4-4.6c0.4-0.1,0.8-0.1,1.2-0.2c11.2,0,22.4,0,33.5,0c0.3,0,0.6,0.1,0.8,0.1
		c2.2,0.5,3.7,1.8,4.3,4c0.1,0.3,0.1,0.6,0.2,0.9c0,0.3,0,0.5,0,0.8c0,0.1,0,0.1,0,0.2c-0.3,2.3-1.8,4-4,4.6
		C41.5,17.3,41.1,17.3,40.7,17.4z M24,16.1c5.4,0,10.8,0,16.2,0c0.4,0,0.9,0,1.3-0.1c1.5-0.4,2.5-1.2,3-2.7c0.5-1.5,0.2-2.8-0.8-4
		c-0.9-1-2.1-1.4-3.4-1.4c-10.8,0-21.6,0-32.5,0c-0.5,0-0.9,0-1.4,0.2c-1.5,0.4-2.6,1.4-2.9,3c-0.3,1.6,0,3,1.3,4.1
		c0.9,0.7,1.9,1,3,1C13.2,16.1,18.6,16.1,24,16.1z"/>
	<path d="M7.9,11c0,0.5,0,0.9,0,1.4c0,0.6,0,1.3,0,1.9c0,0.2,0,0.2-0.2,0.2c-0.4,0-0.8,0-1.2,0c-0.1,0-0.2,0-0.2-0.2
		c0-1.6,0-3.2,0-4.8c0-0.1,0-0.2,0.2-0.2c0.4,0,0.9,0,1.3,0C8,9.4,8,9.5,8.1,9.6c0.6,1,1.3,2.1,1.9,3.1c0,0.1,0.1,0.1,0.1,0.2
		c0.1-0.1,0-0.2,0-0.2c0-1,0-2,0-3c0-0.2,0.1-0.3,0.2-0.2c0.4,0,0.8,0,1.1,0c0.1,0,0.2,0,0.2,0.2c0,1.6,0,3.2,0,4.8
		c0,0.1-0.1,0.2-0.2,0.2c-0.4,0-0.8,0-1.2,0c-0.1,0-0.2-0.1-0.3-0.2c-0.6-1-1.3-2.1-1.9-3.1C8.1,11.2,8.1,11.1,7.9,11z"/>
	<path d="M36.8,12c0,0.8,0,1.5,0,2.3c0,0.2,0,0.2-0.2,0.2c-0.4,0-0.7,0-1.1,0c-0.1,0-0.2,0-0.2-0.1c0-0.1-0.1,0-0.2,0
		c-0.7,0.3-1.3,0.3-1.9-0.2c-0.7-0.5-0.9-1.5-0.5-2.3c0.5-0.8,1.4-1.1,2.3-0.8c0.3,0.1,0.3,0.1,0.3-0.2c0-0.4,0-0.9,0-1.3
		c0-0.2,0.1-0.2,0.2-0.2c0.4,0,0.7,0,1.1,0c0.2,0,0.2,0.1,0.2,0.2C36.7,10.4,36.8,11.2,36.8,12z M35.3,12.8c0-0.2,0-0.4,0-0.6
		c0-0.4-0.2-0.6-0.6-0.6c-0.4,0-0.6,0.2-0.6,0.6c0,0.4,0,0.9,0,1.3c0,0.4,0.3,0.6,0.6,0.6c0.4,0,0.6-0.2,0.6-0.6
		C35.3,13.2,35.3,13,35.3,12.8z"/>
	<path d="M16.5,11.5c0.3-0.3,0.6-0.4,1-0.5c1.1-0.2,2,0.6,2,1.7c0,0.5,0,1.1,0,1.6c0,0.2-0.1,0.2-0.2,0.2c-0.4,0-0.7,0-1.1,0
		c-0.2,0-0.2-0.1-0.2-0.2c0-0.6,0-1.3,0-1.9c0-0.3-0.1-0.5-0.4-0.7c-0.3-0.1-0.6-0.1-0.8,0.1c-0.2,0.1-0.2,0.3-0.2,0.5
		c0,0.7,0,1.3,0,2c0,0.2,0,0.2-0.2,0.2c-0.4,0-0.8,0-1.1,0c-0.1,0-0.2,0-0.2-0.2c0-1,0-2,0-3c0-0.1,0.1-0.2,0.2-0.2c0.3,0,0.7,0,1,0
		C16.4,11.1,16.6,11.2,16.5,11.5z"/>
	<path d="M29,11.5c0.4-0.3,0.7-0.4,1-0.5c1-0.2,1.9,0.6,1.9,1.6c0,0.6,0,1.1,0,1.7c0,0.1,0,0.2-0.2,0.2c-0.4,0-0.7,0-1.1,0
		c-0.2,0-0.2-0.1-0.2-0.2c0-0.6,0-1.3,0-1.9c0-0.5-0.3-0.8-0.7-0.8c-0.4,0-0.7,0.3-0.7,0.8c0,0.6,0,1.2,0,1.9c0,0.2,0,0.2-0.2,0.2
		c-0.4,0-0.7,0-1.1,0c-0.1,0-0.2,0-0.2-0.2c0-1,0-2,0-3c0-0.2,0.1-0.2,0.2-0.2c0.3,0,0.6,0,1,0C28.9,11.2,29.1,11.1,29,11.5z"/>
	<path d="M39.5,10.9c0.6,0,1.1,0.2,1.5,0.5c0.9,0.7,0.9,1.9,0,2.7c-0.9,0.8-2.3,0.8-3.2,0c-0.9-0.7-0.8-1.9,0-2.7
		C38.4,11.1,38.9,10.9,39.5,10.9z M38.9,12.8c0,0.3,0,0.6,0,0.9c0,0.4,0.3,0.6,0.6,0.6c0.3,0,0.6-0.3,0.6-0.6c0-0.6,0-1.1,0-1.7
		c0-0.4-0.3-0.6-0.6-0.7c-0.4,0-0.6,0.2-0.6,0.6C38.9,12.2,38.9,12.5,38.9,12.8z"/>
	<path d="M25.5,12.9c-0.4,0-0.8,0-1.2,0c-0.2,0-0.2,0-0.2,0.2c0,0.2,0,0.5,0,0.7c0.1,0.3,0.3,0.5,0.6,0.5c0.3,0,0.6-0.2,0.6-0.6
		c0.1-0.4,0.1-0.4,0.4-0.4c0.3,0,0.6,0,0.9,0c0.2,0,0.2,0.1,0.1,0.2c-0.3,0.6-0.8,1-1.5,1.1c-0.9,0.2-1.7,0-2.3-0.6
		c-0.8-0.7-0.7-1.8,0-2.5c0.9-0.9,2.5-0.8,3.4,0c0.3,0.3,0.5,0.6,0.5,1c0,0.2,0,0.2-0.2,0.2C26.4,12.8,25.9,12.9,25.5,12.9z
		 M24.7,12.3c0.2,0,0.3,0,0.5,0c0.1,0,0.1,0,0.1-0.1c0.1-0.3-0.1-0.8-0.4-0.9c-0.2-0.1-0.5,0-0.6,0.2c-0.2,0.2-0.2,0.5-0.2,0.7
		c0,0.1,0.1,0.1,0.2,0.1C24.4,12.3,24.6,12.3,24.7,12.3z"/>
	<path d="M20.3,12.8c0-0.5,0-1,0-1.5c0-0.1,0-0.2-0.2-0.2c-0.2,0-0.3,0-0.5,0c-0.1,0-0.2,0-0.2-0.1c0-0.4,0-0.4,0.3-0.4
		c0.5,0,0.5,0,0.5-0.5c0-0.2,0.1-0.2,0.2-0.2c0.4,0,0.8,0,1.1,0c0.1,0,0.2,0,0.2,0.2c0,0.5,0,0.5,0.5,0.5c0.3,0,0.4,0.1,0.3,0.4
		c0,0.1-0.1,0.1-0.1,0.1c-0.2,0-0.3,0-0.5,0c-0.2,0-0.2,0-0.2,0.2c0,1,0,1.9,0,2.9c0,0.2-0.1,0.3-0.3,0.3c-0.3,0-0.7,0-1,0
		c-0.2,0-0.3,0-0.3-0.3C20.3,13.8,20.3,13.3,20.3,12.8C20.3,12.8,20.3,12.8,20.3,12.8z"/>
	<path d="M14.1,12.8c0,0.5,0,1,0,1.5c0,0.1,0,0.2-0.2,0.2c-0.4,0-0.8,0-1.1,0c-0.2,0-0.2-0.1-0.2-0.2c0-1,0-2,0-3
		c0-0.1,0-0.2,0.2-0.2c0.4,0,0.8,0,1.2,0c0.1,0,0.2,0.1,0.2,0.2C14.1,11.8,14.1,12.3,14.1,12.8z"/>
	<path d="M13.4,9.4c0.2,0,0.4,0,0.6,0c0.1,0,0.2,0,0.2,0.1c0,0.2,0,0.5,0,0.7c0,0.1,0,0.2-0.2,0.2c-0.4,0-0.8,0-1.2,0
		c-0.1,0-0.2,0-0.2-0.2c0-0.2,0-0.5,0-0.7c0-0.1,0-0.2,0.2-0.2C13,9.5,13.2,9.4,13.4,9.4z"/>
	<path d="M43.1,10.1c0,0.6-0.4,1-1,1c-0.6,0-1-0.4-1-1c0-0.6,0.5-1,1-1C42.6,9.1,43.1,9.5,43.1,10.1z M42.1,10.9
		c0.5,0,0.8-0.4,0.8-0.8c0-0.5-0.4-0.8-0.8-0.8c-0.5,0-0.8,0.4-0.8,0.8C41.2,10.6,41.6,10.9,42.1,10.9z"/>
	<path d="M42.5,10.6c-0.1,0.1-0.2,0-0.2-0.1c-0.1-0.1-0.1-0.2-0.2-0.3c0-0.1-0.1-0.1-0.2-0.1c-0.1,0-0.1,0.1-0.1,0.2
		c0,0.1,0,0.2,0,0.2c0,0,0,0.1-0.1,0.1c-0.1,0-0.1,0-0.1-0.1c0-0.3,0-0.6,0-1c0,0,0-0.1,0.1-0.1c0.2,0,0.4,0,0.5,0
		c0.1,0,0.2,0.1,0.2,0.2c0,0.1,0,0.3-0.1,0.3c-0.2,0.1-0.1,0.1,0,0.2C42.4,10.4,42.5,10.5,42.5,10.6z M42,10c0.1,0,0.3,0,0.3-0.2
		c0-0.2-0.2-0.2-0.3-0.2c-0.1,0-0.2,0-0.2,0.2C41.8,10,41.9,10,42,10z"/>
</g>
</svg>
