<?xml version="1.0" encoding="utf-8"?>
<!-- Generator: Adobe Illustrator 19.2.1, SVG Export Plug-In . SVG Version: 6.00 Build 0)  -->
<svg version="1.1" id="Layer_1" xmlns="http://www.w3.org/2000/svg" xmlns:xlink="http://www.w3.org/1999/xlink" x="0px" y="0px"
	 viewBox="0 0 24 24" style="enable-background:new 0 0 24 24;" xml:space="preserve">
<g id="JGdANQ.tif">
	<g>
		<path d="M8.9,12c0-0.8,0-1.7,0-2.5c0-0.2,0-0.2,0.2-0.2c1.2,0,2.3,0,3.5,0c0.7,0,1.3,0.1,2,0.3c0.6,0.2,1.1,0.6,1.4,1.2
			c0.2,0.3,0.3,0.7,0.3,1.1c0,0.3,0,0.6-0.1,0.9c-0.1,0.4-0.4,0.8-0.7,1.1c-0.6,0.5-1.3,0.7-2.1,0.8c-0.6,0.1-1.2,0.1-1.8,0.1
			c-0.8,0-1.7,0-2.5,0c-0.2,0-0.2,0-0.2-0.2C8.9,13.7,8.9,12.9,8.9,12z M10.8,12c0,0.6,0,1.2,0,1.8c0,0.2,0,0.2,0.2,0.2
			c0.5,0,0.9,0,1.4,0c0.3,0,0.7-0.1,1-0.2c0.3-0.1,0.5-0.3,0.7-0.5c0.4-0.5,0.5-1,0.4-1.5c-0.1-0.6-0.5-1.1-1-1.3
			c-0.5-0.2-0.9-0.3-1.5-0.3c-0.2,0-0.4,0-0.6,0c-0.1,0-0.3,0-0.4,0c-0.1,0-0.1,0-0.1,0.1c0,0,0,0.1,0,0.1
			C10.8,10.8,10.8,11.4,10.8,12z"/>
		<path d="M6.9,11.7c0.4,0.1,0.7,0.2,1,0.5c0.2,0.1,0.3,0.3,0.4,0.5c0.2,0.4,0.1,0.8-0.2,1.2c-0.3,0.3-0.6,0.4-0.9,0.6
			c-0.5,0.2-1,0.3-1.5,0.3c-0.5,0-1.1,0-1.6,0c-0.6,0-1.2-0.1-1.8-0.2c-0.2,0-0.2,0-0.2-0.2c0-0.2,0-0.4,0-0.6c0-0.2,0-0.2,0.2-0.1
			c0.2,0.1,0.5,0.1,0.7,0.2C3.4,13.9,3.8,14,4.3,14c0.4,0,0.7,0,1.1-0.1c0.3-0.1,0.6-0.2,0.8-0.3c0.3-0.2,0.4-0.7,0-0.9
			c-0.2-0.1-0.4-0.2-0.6-0.3c-0.3-0.1-0.7-0.1-1-0.1c-0.4,0-0.9,0-1.3,0c-0.2,0-0.2,0-0.2-0.2c0-0.1,0-0.3,0-0.4
			c0-0.2,0-0.2,0.2-0.2c0.3,0,0.7,0,1,0c0.4,0,0.8-0.1,1.2-0.2c0.2,0,0.3-0.1,0.5-0.2C6,11,6.1,11,6.1,11c0.2-0.3,0.1-0.5-0.2-0.7
			c-0.2-0.1-0.3-0.2-0.5-0.2C5,10,4.7,9.9,4.3,10c-0.6,0-1.2,0.1-1.8,0.3c-0.1,0-0.1,0-0.2,0c-0.1,0-0.2,0-0.2-0.1
			c0-0.2,0-0.4,0-0.6c0-0.1,0-0.1,0.1-0.2c0.1,0,0.3-0.1,0.5-0.1c0.3,0,0.6-0.1,0.9-0.1c0.5,0,1,0,1.5,0c0.7,0,1.3,0.1,2,0.3
			c0.3,0.1,0.6,0.2,0.8,0.4c0.3,0.2,0.4,0.7,0.2,1c-0.1,0.3-0.3,0.4-0.6,0.6C7.3,11.6,7.1,11.7,6.9,11.7z"/>
		<path d="M18.7,14.8c-0.7,0-1.4,0-2.1-0.2c-0.2,0-0.2,0-0.2-0.2c0-0.2,0-0.4,0-0.6c0-0.1,0-0.2,0.2-0.1c0.5,0.2,1.1,0.2,1.7,0.3
			c0.2,0,0.5,0,0.7,0c0.3,0,0.5-0.1,0.8-0.2c0.1-0.1,0.2-0.2,0.3-0.4c0-0.2,0-0.4-0.2-0.5c-0.2-0.1-0.4-0.2-0.6-0.3
			c-0.5-0.2-0.9-0.4-1.4-0.5c-0.4-0.1-0.7-0.3-1-0.5c-0.2-0.1-0.3-0.3-0.4-0.5c-0.2-0.4-0.1-0.9,0.3-1.2c0.4-0.3,0.9-0.5,1.5-0.6
			c0.3,0,0.5,0,0.8-0.1c0.4,0,0.8,0,1.2,0c0.3,0,0.6,0.1,0.9,0.1c0.1,0,0.1,0,0.1,0.2c0,0.2,0,0.4,0,0.6c0,0.1,0,0.2-0.2,0.1
			c-0.4-0.1-0.7-0.2-1.1-0.2c-0.4-0.1-0.9-0.1-1.3,0c-0.1,0-0.3,0.1-0.4,0.2c-0.2,0.1-0.2,0.4-0.1,0.6c0.2,0.2,0.4,0.3,0.6,0.3
			c0.6,0.2,1.1,0.4,1.7,0.6c0.3,0.1,0.7,0.3,0.9,0.5c0.2,0.2,0.4,0.3,0.5,0.6c0.2,0.6-0.1,1.1-0.6,1.4c-0.4,0.2-0.8,0.3-1.2,0.4
			c-0.2,0-0.3,0-0.5,0.1C19.3,14.8,19,14.8,18.7,14.8z"/>
	</g>
</g>
</svg>
