<?xml version="1.0" encoding="utf-8"?>
<!-- Generator: Adobe Illustrator 19.2.1, SVG Export Plug-In . SVG Version: 6.00 Build 0)  -->
<svg version="1.1" id="Layer_1" xmlns="http://www.w3.org/2000/svg" xmlns:xlink="http://www.w3.org/1999/xlink" x="0px" y="0px"
	 viewBox="0 0 24 24" style="enable-background:new 0 0 24 24;" xml:space="preserve">
<style type="text/css">
	.st0{fill:none;}
</style>
<g id="DNYEQe_1_">
	<g>
		<path class="st0" d="M16.6,14.6c0.1-0.3,0.2-0.5,0.3-0.8c0.2-0.5,0.4-1,0.5-1.5c0.2-0.5,0.4-1.1,0.5-1.6c0.1-0.4,0.3-0.9,0.4-1.3
			c0.1-0.3,0.3-0.4,0.5-0.6c0.3-0.2,0.6-0.2,0.9-0.2c0.6,0.1,1,0.4,1.2,1c0.1,0.3,0.2,0.6,0.3,0.8c0.1,0.4,0.3,0.9,0.4,1.3
			c0.2,0.5,0.3,1,0.5,1.5c0.2,0.5,0.4,1.1,0.5,1.6c0,0.1,0.1,0.2,0.1,0.3c0,0.1,0,0.1-0.1,0.1c0,0,0,0-0.1,0c-1.1,0-2.3,0-3.4,0
			c-0.1,0-0.1,0-0.1-0.1c0-0.2,0-0.5,0-0.7c0-0.1,0-0.1,0.1-0.1c0.7,0,1.4,0,2.2,0c0.1,0,0.1,0,0.1-0.1c-0.2-0.5-0.4-1.1-0.5-1.6
			c-0.2-0.6-0.4-1.2-0.6-1.9c-0.1-0.3-0.2-0.7-0.3-1c-0.1-0.2-0.2-0.3-0.4-0.4c-0.2-0.1-0.5,0.1-0.6,0.3c-0.1,0.2-0.1,0.4-0.2,0.6
			c-0.1,0.2-0.2,0.5-0.2,0.7c-0.1,0.3-0.2,0.6-0.3,0.9c-0.1,0.3-0.2,0.6-0.3,0.9c-0.1,0.3-0.2,0.6-0.3,0.9c-0.1,0.3-0.2,0.6-0.3,0.9
			c-0.1,0.2-0.1,0.4-0.2,0.6c0,0.1-0.1,0.1-0.1,0.1c-0.5,0-0.9,0-1.4,0c-0.8,0-1.5,0-2.3,0c-0.6,0-1.1-0.3-1.5-0.8
			c-0.2-0.3-0.3-0.7-0.3-1.1c0-1,0-1.9,0-2.9c0-0.7,0.3-1.3,1-1.6c0.3-0.1,0.5-0.2,0.8-0.2c1,0,1.9,0,2.9,0c0.1,0,0.1,0,0.1,0.1
			c0,0.2,0,0.4,0,0.6c0,0.1,0,0.1-0.1,0.1c-1,0-1.9,0-2.9,0c-0.5,0-0.9,0.4-0.9,0.9c0,1,0,2,0,2.9c0,0.4,0.2,0.6,0.5,0.8
			c0.1,0.1,0.3,0.1,0.4,0.1c0.7,0,1.3,0,2,0c0.1,0,0.1,0,0.1-0.1c0-0.7,0-1.5,0-2.2c0-0.1,0-0.1-0.1-0.1c-0.5,0-1,0-1.4,0
			c-0.1,0-0.1,0-0.1-0.1c0-0.2,0-0.5,0-0.7c0-0.1,0-0.1,0.1-0.1c0.8,0,1.6,0,2.4,0c0.1,0,0.1,0,0.1,0.1c0,1.1,0,2.2,0,3.3
			C16.6,14.5,16.6,14.6,16.6,14.6z"/>
		<path class="st0" d="M2.6,14.4c0.5,0,0.9,0,1.4,0c0.5,0,1-0.3,1.1-0.8c0.2-0.5,0-1.1-0.4-1.4C4.4,12,4.2,12,3.9,11.9
			c-0.2,0-0.5,0-0.7,0c-0.6,0-1.1-0.5-1-1.1c0-0.5,0.4-0.9,0.9-0.9c0.5,0,1.1,0,1.6,0c0.4,0,0.9,0,1.3,0c0.1,0,0.1,0,0.1,0.1
			c0,0.2,0,0.4,0,0.7c0,0.1,0,0.1-0.1,0.1c-0.9,0-1.8,0-2.7,0c0,0-0.1,0-0.1,0c-0.1,0-0.1,0-0.1,0.1C3.1,11,3.1,11,3.2,11
			c0.3,0,0.6,0,0.9,0c0.5,0,0.9,0.2,1.3,0.5c0.3,0.2,0.5,0.5,0.6,0.8C6,12.6,6.1,12.8,6.1,13c0,0.4,0,0.7-0.2,1
			c-0.2,0.3-0.4,0.6-0.7,0.8c-0.3,0.2-0.7,0.4-1,0.4c0,0-0.1,0-0.1,0c-0.5,0-1,0-1.5,0c-0.5,0-0.9,0-1.4,0c-0.1,0-0.1,0-0.1-0.1
			c0-0.2,0-0.5,0-0.7c0-0.1,0-0.1,0.1-0.1C1.6,14.4,2.1,14.4,2.6,14.4z"/>
		<path class="st0" d="M2.6,14.2c-0.5,0-0.9,0-1.4,0C1,14.2,1,14.2,1,14c0-0.2,0-0.4,0-0.6c0-0.1,0-0.1,0.1-0.1c0.9,0,1.8,0,2.7,0
			c0.1,0,0.2,0,0.2-0.1c0-0.1-0.1-0.1-0.2-0.1c-0.2,0-0.5,0-0.7,0c-0.4,0-0.7-0.1-1.1-0.3c-0.5-0.3-0.8-0.7-0.9-1.2
			C0.9,11,1,10.4,1.3,9.8c0.3-0.5,0.8-0.9,1.4-1c0.1,0,0.2,0,0.2,0c1,0,2,0,3,0c0.1,0,0.1,0,0.1,0.1c0,0.3,0,0.5,0,0.8
			c0,0,0,0.1-0.1,0.1c0,0-0.1,0-0.1,0c-0.9,0-1.8,0-2.8,0c-0.5,0-0.8,0.2-1.1,0.6c-0.3,0.5-0.2,1.1,0.2,1.4c0.2,0.2,0.5,0.3,0.8,0.4
			c0.3,0,0.6,0,0.9,0c0.3,0,0.6,0.2,0.7,0.4c0.3,0.4,0.2,1-0.1,1.3c-0.2,0.2-0.4,0.3-0.7,0.3C3.5,14.2,3,14.2,2.6,14.2z"/>
		<path class="st0" d="M6.5,12c0-0.5,0-1,0-1.5c0-0.5,0.2-0.9,0.6-1.3C7.4,9,7.7,8.9,8,8.8c0,0,0.1,0,0.1,0c1.1,0,2.1,0,3.2,0
			c0.1,0,0.1,0,0.1,0.1c0,0.2,0,0.4,0,0.6c0,0.1,0,0.1-0.1,0.1c-1,0-2,0-3,0c-0.5,0-0.9,0.4-0.9,0.9c0,1,0,1.9,0,2.9
			c0,0.5,0.4,0.9,0.9,0.9c1,0,2,0,3,0c0.1,0,0.1,0,0.1,0.1c0,0.2,0,0.4,0,0.7c0,0.1,0,0.1-0.1,0.1c-1,0-2.1,0-3.1,0
			c-0.4,0-0.7-0.1-1-0.4c-0.4-0.3-0.6-0.7-0.7-1.2c0,0,0-0.1,0-0.1C6.5,13.1,6.5,12.6,6.5,12z"/>
		<path class="st0" d="M19.3,13.5c-0.1,0.2-0.2,0.5-0.3,0.7c-0.1,0.2-0.2,0.5-0.2,0.7c0,0.1-0.1,0.2-0.1,0.3c0,0.1,0,0.1-0.1,0.1
			c-0.3,0-0.6,0-0.9,0c-0.1,0-0.1,0-0.1-0.1c0.1-0.3,0.2-0.6,0.3-0.9c0.1-0.4,0.2-0.7,0.4-1.1c0.1-0.3,0.2-0.6,0.3-0.9
			c0.1-0.3,0.2-0.6,0.3-0.9c0.1-0.3,0.2-0.6,0.3-0.9c0.1-0.2,0.2-0.5,0.2-0.7c0.1-0.2,0.1-0.2,0.3-0.2c0.1,0,0.2,0.1,0.3,0.2
			c0.1,0.4,0.2,0.7,0.4,1.1c0.1,0.4,0.3,0.7,0.4,1.1c0.1,0.3,0.2,0.7,0.3,1c0.1,0.3,0.2,0.6,0.3,1c0,0.1,0,0.1-0.1,0.1
			c-0.6,0-1.3,0-1.9,0c-0.1,0-0.1,0-0.1-0.1c0-0.2,0-0.4,0-0.5C19.3,13.5,19.3,13.5,19.3,13.5z M19.7,12.3
			C19.7,12.3,19.7,12.3,19.7,12.3c-0.1,0.3-0.2,0.6-0.3,0.8c0,0.1,0,0,0.1,0c0.2,0,0.3,0,0.5,0c0.1,0,0.1,0,0-0.1
			C19.9,12.8,19.8,12.6,19.7,12.3z"/>
		<path class="st0" d="M12.9,12c0-0.5,0-1,0-1.5c0-0.3,0.3-0.6,0.6-0.7c0.1,0,0.2,0,0.3,0c0.9,0,1.8,0,2.7,0c0.1,0,0.1,0,0.1,0.1
			c0,0.2,0,0.4,0,0.7c0,0.1,0,0.1-0.1,0.1c-0.8,0-1.6,0-2.4,0c-0.2,0-0.3,0.1-0.3,0.3c0,0.6,0,1.2,0,1.9c0,0.2,0.1,0.3,0.3,0.3
			c0.1,0,0.3,0,0.4,0c0.1,0,0.1,0,0.1-0.1c0-0.1,0-0.1-0.1-0.1c-0.1,0-0.2,0-0.3,0C14,13.1,14,13,14,13c0-0.2,0-0.5,0-0.7
			c0-0.1,0-0.1,0.1-0.1c0.4,0,0.8,0,1.3,0c0.1,0,0.1,0,0.1,0.1c0,0.6,0,1.2,0,1.9c0,0.1,0,0.1-0.1,0.1c-0.6,0-1.2,0-1.9,0
			c-0.3,0-0.6-0.3-0.6-0.7C12.9,13,12.9,12.5,12.9,12z"/>
		<path class="st0" d="M9.8,9.9c0.5,0,1,0,1.5,0c0.1,0,0.1,0,0.1,0.1c0,0.2,0,0.5,0,0.7c0,0.1,0,0.1-0.1,0.1c-0.8,0-1.7,0-2.5,0
			c-0.1,0-0.2,0-0.2,0.1c0,0,0,0.1,0,0.1c0,0,0.1,0,0.1,0c0.7,0,1.3,0,2,0c0.1,0,0.1,0,0.1,0.1c0,0.2,0,0.5,0,0.7
			c0,0.1,0,0.1-0.1,0.1c-1,0-2,0-3,0c-0.1,0-0.1,0-0.1-0.1c0-0.4,0-0.9,0-1.3c0-0.3,0.2-0.6,0.6-0.6c0.1,0,0.2,0,0.3,0
			C8.9,9.9,9.4,9.9,9.8,9.9z"/>
		<path class="st0" d="M9.8,14.2c-0.5,0-1,0-1.5,0c-0.4,0-0.7-0.3-0.7-0.7c0-0.4,0-0.8,0-1.2c0-0.1,0-0.1,0.1-0.1c1,0,1.9,0,2.9,0
			c0.2,0,0.2,0,0.2,0.2c0,0.2,0,0.4,0,0.6c0,0.1,0,0.1-0.1,0.1c-0.7,0-1.3,0-2,0c0,0-0.1,0-0.1,0c0,0.1,0,0.1,0.1,0.1
			c0,0,0.1,0,0.1,0c0.8,0,1.7,0,2.5,0c0.1,0,0.1,0,0.1,0.1c0,0.2,0,0.4,0,0.7c0,0.1,0,0.1-0.1,0.1C10.8,14.2,10.3,14.2,9.8,14.2z"/>
	</g>
</g>
</svg>
