<?xml version="1.0" encoding="utf-8"?>
<!-- Generator: Adobe Illustrator 19.2.1, SVG Export Plug-In . SVG Version: 6.00 Build 0)  -->
<svg version="1.1" id="Layer_1" xmlns="http://www.w3.org/2000/svg" xmlns:xlink="http://www.w3.org/1999/xlink" x="0px" y="0px"
	 viewBox="0 0 24 24" style="enable-background:new 0 0 24 24;" xml:space="preserve">
<style type="text/css">
	.st0{fill:none;}
</style>
<g id="unGckr.tif">
	<g>
		<path class="st0" d="M15.5,3.9c0.2,0,0.5,0,0.7,0c0,0,0,0,0.1,0C17.2,4,18,4.4,18.7,5c0.1,0.1,0.1,0.1,0.2,0.1
			c0.8-0.2,1.5-0.4,2.1-0.8c0.1,0,0.2-0.1,0.3-0.1c0,0,0,0,0,0c0,0,0,0,0,0c0,0,0,0,0,0.1c-0.3,0.9-0.8,1.5-1.6,2c0,0-0.1,0-0.1,0.1
			c0.8-0.1,1.5-0.3,2.3-0.6c0,0,0,0,0,0c0,0,0,0.1-0.1,0.1c-0.5,0.8-1.1,1.4-1.9,2C20,7.9,20,8,20,8c0,0.8,0,1.7-0.2,2.5
			c-0.3,1.6-0.9,3-1.7,4.4c-0.9,1.3-1.9,2.5-3.2,3.3c-1.7,1.1-3.6,1.8-5.6,1.9c-0.1,0-0.3,0-0.4,0c-0.3,0-0.6,0-1,0c0,0-0.1,0-0.1,0
			c-0.5,0-1.1-0.1-1.6-0.2c-1.5-0.3-2.8-0.8-4.1-1.6c0,0-0.1,0-0.1-0.1c1.1,0.1,2.1,0,3.2-0.3c0.9-0.3,2.7-1.1,2.8-1.4c0,0,0,0,0,0
			c-0.7,0-1.3-0.2-1.9-0.5c-0.9-0.5-1.5-1.3-1.9-2.2c0-0.1,0-0.1,0.1-0.1c0.5,0.1,0.9,0.1,1.4,0c0.1,0,0.2,0,0.3-0.1
			c0,0-0.1,0-0.1,0C5,13.4,4.3,13,3.7,12.3c-0.6-0.7-0.9-1.6-0.9-2.5c0-0.1,0-0.1,0.1-0.1c0.5,0.2,1,0.4,1.5,0.4c0.1,0,0.1,0,0.2,0
			c0,0-0.1,0-0.1-0.1C4.3,9.9,4.1,9.7,3.9,9.5c-0.8-0.9-1.2-1.9-1.1-3c0-0.6,0.2-1.2,0.5-1.8c0-0.1,0.1-0.1,0.1,0
			c0.4,0.4,0.7,0.8,1.1,1.2C5.6,6.8,6.7,7.5,8,8c1.2,0.5,2.4,0.8,3.7,0.8c0.1,0,0.1,0,0.1-0.1c-0.1-0.5-0.1-0.9,0-1.4
			C12,5.7,13.3,4.3,15,3.9C15.2,3.9,15.3,3.9,15.5,3.9z"/>
	</g>
</g>
</svg>
